<svg preserveAspectRatio="xMidYMid meet" data-bbox="70.864 51.023 425.2 464.887" xmlns="http://www.w3.org/2000/svg" width="30" height="30" viewBox="70.864 51.023 425.2 464.887" data-type="color" role="presentation" aria-hidden="true"><defs><style>#comp-l4pjwzw8 svg [data-color="1"] {fill: #CDAF8C;}</style></defs>
    <g>
        <path fill="#b4a194" d="M165.251 339.439c.186 0 .461-.081.545.012 1.152 1.269.436 2.813.533 4.226.088 1.289 1.526 1.935 1.2 3.452-.944 4.391 1.789 8.535 1.047 12.925-.22 1.298 1.028 1.832 1.323 2.962l-1.464 1.921c.877 1.36 1.357 3.016 1.796 4.783 1.31-3.534 3.298-6.583 4.965-9.795 1.646-3.172 2.308-6.847 3.486-10.272.673-1.956 1.948-3.642 2.827-5.519a748.962 748.962 0 0 0 5.162-11.268c1.746-3.893 4.083-7.614 6.064-11.458.784-1.523 2.032-2.933 1.607-4.931-.333-1.566 1.38-2.018 1.953-3.087 2.038-3.801 3.444-8.099 6.139-11.334 1.687-2.025 1.798-4.549 3.582-6.501 1.293-1.415 2.144-3.936 1.726-6.177l1.542-.397c2.792-6.158 7.271-11.011 10.128-16.744 1.929-3.87 4.34-7.488 5.993-11.467 1.118-2.693 2.418-5.133 4.74-6.722v-3.665c.668-.238 1.671-.283 1.905-.73 1.962-3.752 4.739-6.961 6.931-10.536 3.691-6.02 7.564-11.876 12.039-17.355 2.657-3.253 4.313-7.199 6.964-10.524 3.317-4.161 5.96-8.829 9.625-12.761 2.67-2.864 5.135-5.92 7.241-9.261.772-1.225 1.969-2.21 3.066-3.2 5.28-4.764 8.977-10.862 13.642-16.143.196-.222.118-.687.169-1.038 1.664-.991 3.359-1.505 4.782-3.347 2.407-3.115 5.07-6.32 8.759-8.225.52-.269.624-.693.894-1.135 2.514-4.11 6.317-7.09 10.008-9.933 3.819-2.942 6.404-6.958 10.044-9.977.213-.177.173-.659.303-1.23l2.578-.162c.41-1.858 2.813-2.253 3.091-4.208 2.747-.597 3.694-3.546 5.896-4.658 3.379-1.707 5.175-4.983 8.023-7.237 6.047-4.786 11.935-9.782 18.027-14.528 2.412-1.879 4.378-4.239 7.022-5.96 4.889-3.182 9.475-6.832 14.189-10.284 5.835-4.273 12.281-7.709 17.638-12.608 1.186-1.085 2.418-.421 3.5-1.088 2.955-1.824 6.082-3.387 8.94-5.346 3.461-2.371 7.65-3.521 10.911-6.591h4.063c1.414-.647.865-2.478 1.631-2.788 1.917-1.068 3.47-.276 4.836-.684 1.332-.398 2.44-1.532 4.022-1.09.336.094.953.125 1.06-.049 1.358-2.208 3.779-1.69 5.719-2.441 6.644-2.571 13.433-3.55 20.503-3.111 1.943.121 4.026.504 5.464-1.132 1.41.266 1.882 1.396 2.881 2.164h5.631c1.273 1.925 3.408 2.731 5.945 3.882 1.416 1.657 1.218 4.49 1.919 7.382l-.551.605c1.699.87 3.707 1.319 3.442 4.093-.111 1.166 2.418.889 2.472 2.79.017.614.928 1.441.638 3.13l-4.464 5.753c-.328.422-.94.849-.936 1.269.048 4.916-4.179 5.337-7.11 5.665-5.139.575-9.922 3.301-15.249 2.429-4.148 2.283-8.644.572-12.937 1.143-1.198.159-2.246-1.72-3.48-.18-.749-.58-.25-1.392-.563-2.301 3.52 1.188 6.843.031 9.627-1.177a55.619 55.619 0 0 1 7.309-2.575c-4.299-.573-8.606-1.294-11.679 2.876l-1.446-1.301c-1.19.585-2.426 1.194-3.812 2.178-1.503.22-3.174.22-4.444.22-3.439 1.612-6.344 3.398-9.644 4.597-2.878 1.045-5.556 2.936-7.969 4.889-2.496 2.02-5.133 3.578-8.121 4.664-3.074 1.117-5.125 3.724-7.689 5.579-2.004 1.45-3.702 3.143-6.202 3.937-1.932.613-3.995 1.675-5.3 3.154-1.264 1.433-3.55 1.624-4.142 3.708-.084.295-.397.686-.665.742-3.842.81-5.866 4.004-8.759 6.635l-1.852.142c-2.091 1.93-4.114 4.023-6.374 5.819-2.228 1.771-4.719 3.002-6.715 5.321-1.765 2.05-4.471 3.865-7.542 4.63-1.265 4.036-5.641 4.937-8.316 7.677-.169-1.1-.962-1.636-1.83-2.122-.591.565-.546 1.174-.042 2.004.546.04 1.205.088 1.871.118-1.259 1.924-3.819 2.68-4.871 4.499-1.23 2.127-3.397 2.861-4.872 4.538-1.64 1.865-3.11 4.12-5.853 4.812v2.36c-1.978-.075-1.93 2.723-3.666 2.7-2.09-.028-3.581 1.546-3.78 2.657-.36 2.014-2.274 2.191-3.116 3.651-1.105 1.915-3.817 2.904-6.147 4.504-1.007 2.291-1.788 5.226-5.249 6.252-1.072.318-2.135 1.634-2.613 2.746-.614 1.431-1.709 1.897-2.755 2.77-2.439 2.036-4.222 4.858-6.271 7.361.691 2.074-3.021.816-2.219 2.882.888 2.285-2.607 1.373-2.445 3.469.046.592-2.374 1.148-3.223 2.382-.311.453-.979.731-1.139 1.206-.929 2.758-3.678 3.628-5.502 5.423v2.256c-3.664 1.351-5.119 4.607-6.713 7.744-2.767.36-3.177 3.059-4.552 4.743-1.537 1.882-2.542 4.193-4.042 6.112-1.432 1.832-3.422 3.19-4.354 5.475-.323.791-1.167 1.432-2.647.928-.006 2.692-.911 4.916-1.746 7.201-.952 2.607-4.192 2.599-4.53 5.26-2.379-.246-1.043 2.183-1.664 2.527-2.868 1.588-2.787 5.003-4.609 6.959-2.982 3.2-3.962 7.492-6.616 10.681-1.956 2.351-2.613 6.021-6.616 7.084.391 2.524-.672 4.854-2.189 7.103-1.332 1.975-4.126 3.219-3.347 6.179-.382.989-1.212.773-1.839.911-.828 2.174-.459 5.015-3.648 5.81v3.348c-1.737 1.952-3.785 3.836-3.493 6.88-4.505 4.17-6.448 9.889-8.844 15.298-.417.941-.444 2.047-1.341 2.797-1.289 1.077-1.692 2.669-2.076 4.159-.815 3.16-.916 3.515-3.72 6.327-.24.241-.717.403-.763.659-.941 5.252-4.218 9.436-6.438 14.099-.458.962.888.889.628 1.671-.314.543-.927.281-1.45.341-.198.282-.48.542-.571.857-.099.344-.007.739-.025 1.111-.147 2.946-3.356 4.326-3.525 7.541-.128 2.444-1.441 5.01-3.4 6.906-.541.524-.953 1.016-.919 1.867.096 2.359-.49 4.181-2.873 5.524-1.007.567-1.486 2.79-1.484 4.259.003 2.317-1.168 3.97-2.091 5.881-1.418 2.934-2.819 5.992-3.443 9.152-.386 1.952-3.036 2.407-2.384 4.631.602 2.058-1.055 2.944-2.113 4.163-.192.221.047.812-.144 1.039-1.877 2.231-.829 5.524-2.996 7.731-1.91 1.946-1.871 4.829-2.789 7.207-.919 2.38-1.784 4.843-2.805 7.212-1.024 2.377-2.229 4.676-3.583 7.481-.085 1.058.352 3.117-.48 4.196-1.161 1.505 1.822 2.735-.333 4.083-1.34.838.471 3.275-1.244 4.443-.258 4.311-.968 8.652.496 12.878-1.522 8.144-1.497 16.161 2.644 23.931l-1.068 1.589c.263.265.526.528.91.912l-1.076 1.369 2.603 1.798-1.068.992c1.551 4.625.246 9.322.942 14.156h-4.633c-1.358.598-1 1.491-1.335 2.084-.579.779-1.417.092-1.935.405-2.45-.576-2.243-2.612-2.607-4.287-1.989.746-3.827 1.62-4.675 3.024-1.52.278-1.751-.659-2.692-1.122.649 2.752-3.209 2.908-2.429 5.571-5.634-.387-11.435-5.996-10.201-9.549l-1.917-.753c-.613-1.083.145-1.678.82-2.302-.489-1.587-2.257-1.434-3.223-2.369l.885-.885c.141-1.435-1.595-.159-1.65-.928-.843-1.054.202-2.404-.921-3.216l-4.347 4.42h-2.486c.064 2.175-2.199 2.148-2.858 2.948l-1.966-1.196c-.272-1.353.606-1.634.966-2.251-.349-.775-1.239-.397-2.078-.886.748-1.599-1.559-2.811-.267-5.035.89-1.531.171-3.998.171-6.046 3.899-4.685 4.247-10.807 6.453-16.266-.297-.501-.919-.182-1.433-.276-2.15-4.658-2.847-9.151-1.852-11.899-.377-.617-.998-.301-1.621-.43-.691-2.672-2.159-5.239-1.418-8.307l-2.22-1.872c-.114-3.332-1.221-6.41-2.087-9.625.455-.388 1.001-.886.796-1.815-2.049-.796-2.936-2.508-3.33-4.592-.261-1.382.665-3-.783-4.142-1.501-1.183 1.392-2.017.251-3.084-1.312-1.227-.086-2.856-.707-4.085l-2.035-2.035c.203-.675 1.231-.848 1.044-1.745.18-1.62-1.366-.781-1.945-1.389-.385-3.036-2.295-5.845-1.818-9.693l-2.073-1.477 1.318-1.465-.861-.861c-.259-.932 1.58-1.071.471-2.556-4.15-1.208-2.148-5.965-3.683-9.192l.945-1.03-2.55-5.016 1.125-1.345c-1.175-2.096-2.803-4.09-1.906-6.855l-2.326-.807-.203-3.682c-.497-.862-2.439-.01-2.132-1.887.03-1.389 1.617-.371 2.172-1.398-1.145-.629-2.587-.897-3.285-2.23v-2.067c-.423-1.131-1.861-.258-2.233-1.347-.437-1.12.709-1.526 1.126-2.351.161-1.437-1.893-2.208-1.19-3.968.606-1.517-.826-2.288-1.712-3.161-1.083-1.067.328-3.121-1.674-3.837l2.405-2.148c-2.941-2.249-3.064-6.158-5.513-7.894-.476-1.832.215-2.654.895-3.585l-2.177-.78c-.087-2.366.402-4.979-1.552-7.157l-1.974-.706c1.395-4.41-1.414-7.89-2.664-11.677-.382-1.157.607-1.327.418-2.013l-2.018-2.017 1.065-1.178-3.39-3.335c.788-2.86-1.363-5.093-2.368-7.575l1.484-1.591-2.228-1.751c-.642-1.508.731-1.822.727-2.841l-1.64-.338c-.609-.406-.076-.742.367-1.205-.469-2.692-3.739-5.21-.872-8.235-.407-.706-1.022-.433-1.683-.516-.602-1.952-1.199-3.826-.539-6.083.542-1.852.248-3.93-1.508-5.608l2.602-.899v-5.864c2.189-.778 4.046-3.066 6.315-.569.678-1.167 1.793-1.127 2.912-1.075 2.482.581 6.708 8.264 7.671 14.011l2.245 1.053-1.059 1.059c2.452 1.237 2.951 4.693 6.281 4.908.74-.693.148-1.685.343-2.539-.331-.529-1.144-.402-1.351-.652-1.194-1.443-2.226-3.021-3.233-4.44 1.21-2.564 2.049-.503 2.983-.063l1.581-1.58c-.366-.402-1.038-.794-1.051-1.206-.156-5.079-1.875-10.037-1.168-15.179.277-2.014-.18-3.898-1.114-5.682 1.72-1.926-.658-3.752-.109-5.807.511-1.912.109-4.068.109-6.116 0-2.235.029-4.47-.012-6.704-.021-1.139-.003-2.215 1.113-2.894l-1.344-1.471c2.496-2.781 2.12-6.748 3.845-9.976 2.15-.407 3.191-2.271 4.725-3.596 1.711 1.866 3.421 1.114 5.02-.107 2.201.815 4.159 1.908 6.293 2.661 1.544.544 3.713 1.842 4.359 4.047 2.685.362 3.495 3.082 5.499 4.301.855.569 2.142-.357 2.886.766-.456 1.006-1.976.028-2.16 1.12-.569 2.651 2.984.732 2.833 2.964-.256 3.24 2.117 5.679 3.084 8.631l2.637.308c.75 1.051.275 1.749-.559 2.358-.044 1.233.909.663 1.459.846 1.266 1.435 1.211 3.64 2.777 4.977v4.397c.821 1.029 1.68 1.931 2.979 2.01l2.43 4.981c-.048.494-1.355.832-.911 1.9 1.462.36 2.964.282 4.102-.216.751.784.156 1.769.433 2.773l1.855.643c.495.45.302.991.223 1.544-1.031.999-.876-.887-1.904-.234-.292.408-1.619.802-1.357 2.207.711 1.063 1.219 1.036 4.112-.221.707.803.204 1.757.33 2.633-.973.751-2.394.799-3.094 1.974l2.224 6.089 2.014.7c-.414 1.125-1.83.251-2.261 1.697h5.879c-1.147 2.617 1.723 4.131.452 6.976-.145.355-1.323-.689-1.749.698l.056 1.282 2.766.187c.208 1.733 2.46 2.815 1.441 4.948-.293.981-1.734.103-2.107 1.382.531 1.694 1.041 3.603 3.384 4.178-1.062 1.085-2.378.17-3.453.914 1.313 1.607 3.272.046 4.451 1.271.232 1.042.055 1.611-1.231 1.824-1.13.187-1.821 1.541-4.064 1.029 2.411 1.669 3.672 1.414 4.73.126 2.437 1.157 1.626 3.267 1.796 5.216l-1.858.398c-.839.692-.212 1.7-.416 2.555 1.321 1.367 2.316 3.113 4.493 3.226-.526 1.311-2.193.125-2.224 1.709-.216 2.328 3.058.957 3.338 3.768-1.04 4.69 1.575 9.954 1.116 15.442-.774-.028-1.146.344-1.12 1.12-.539-.093-.877.153-.993.664-.02.086.242.348.329.329.511-.115.757-.454.664-.993.776.026 1.149-.347 1.12-1.12zm235.271-236.776c1.327-.381 2.324.328 2.758-.848-.773-.747-1.484-.653-2.155.671-.537-.096-.875.151-.99.661-.02.086.242.348.329.329.51-.115.756-.454.058-.813zm-6.61 5.225c-1.327.381-2.324-.328-2.758.848.773.747 1.484.653 2.15-.666.847-.168 2.14.554 2.235-1.354 1.103-.068 2.463.889 3.296-.319.136-.863.119-1.543-1.137-1.717-.999-.085-1.353 1.153-2.157 2.272-.848.168-2.141-.554-1.629.936zm-15.148 11.398l1.875-.137c.504-.83.549-1.439-.042-2.004-.868.486-1.66 1.022-1.826 2.103-1.672.095-.95 1.388-1.118 2.312-2.125-.596-3.726.718-5.493 1.497-.012 1.327-.452 2.72.552 4.274l.842-2.366c1.266-.591 2.919.6 4.099-.688v-2.794c1.673-.096.95-1.389 1.111-2.197zm51.382-32.31c.741-.427 1.768.375 1.248.091l-.535-2.592-.557.377c-.048.659-.096 1.318.257 1.882-1.443.355-2.747-.513-3.77.869.589.133 1.062.298 1.544.333.677.051 1.412.165 1.813-.96zM127.237 351.729c.096-.536-.151-.875-.662-.99-.087-.02-.348.242-.329.329.115.511.454.757 1.527.383-.755 1.764-.882 3.229.172 5.055.523-1.867.711-3.333-.708-4.777zm-2.23-11.173c-.137-.863.708-1.082 1.063-1.644-1.439-.382-.294-2.765-2.181-2.827-.246-1.068 1.413-1.21.987-2.739l-.892-1.275c.669-.613 1.421-1.197.831-2.357l-2.134-.803c.971-3.892-1.425-7.495-1.24-11.441.005-.114-.59-.256-.871-.221-.226-1.63.373-3.212-.489-4.681-.907.637-.753 1.434-.626 2.063.202 1.001-1.044 1.245-.952 2.259.499.087.993.172 2.033.195.245 1.069-1.419 1.215-.968 2.805 1.075.369 1.187 1.677.938 2.922-.701 3.506 1.494 6.612 1.299 10.096-.047.846.455 2.735 2.084 3.178-.044 1.44.344 2.969-1.538 4.471 1.335 0 1.995 0 2.665-.037 1.306 2.391-1.247 4.332-1.074 6.491 2.02.688 2.49-.752 3.726-2.018-2.406-.717-.886-3.053-2.661-4.437zm157.378-127.731l-5.378 5.36v1.073c-4.065 2.315-5.903 6.222-8.063 10.058 2.631 1.567 4.054-.656 5.926-1.075v-3.462c1.426-.772 2.007-1.349 2.754-2.699.861-.201 1.844.391 2.645-.428l.29-2.581c1.428-.443 2.789-.877 3.19-2.511.527-1.735-1.649-2.805-1.118-4.541 2.568.592 3.195-2.76 5.506-2.707-.146-.974.748-2.174-.723-2.933-2.632.003-2.17 3.899-4.782 4.008-.008 0-.001.345-.001.529 0 .367 0 .734-.246 1.909zM150.838 418.752c1.423-2.588.863-4.087.977-5.52.103-1.294-.519-3.229.125-3.785 1.77-1.528-.243-2.454-.165-3.663.687-10.541-1.778-20.984-1.065-31.538.063-.926.401-2.214-.061-2.727-1.761-1.954-1.187-4.265-.934-6.283.316-2.516-.902-4.546-1.346-6.785-.279-1.404 1.162-1.997.568-3.736-1.226-3.587-1.176-7.572-2.409-11.283-.205-.619 1.504-2.595.745-3.231-1.797-1.509-.259-3.64-1.432-5.054-1.515-1.826-.05-4.031-.771-5.826-1.335-3.321-.58-6.989-2.114-10.29-1.043-2.245-1.452-4.75-1.214-7.324.168-1.813.032-3.655.032-5.391l-1.973-.71c-.734-1.324.238-1.813.675-2.295-.849-1.827-1.646-3.627-3.456-4.889v-5.877c-.801-.124-1.422.192-1.727-.46-1.126-2.515.651-5.24-1.116-7.954-1.758-2.7-3.257-5.849-2.441-9.224-1.067-.391-1.929-.103-2.303-1.142v-3.627c-2.59-3.637-3.561-7.355-4.774-10.965-.579-.385-1.487.011-1.89-.822-.084-1.237-.186-2.51 1.058-3.366-1.24-.881-3.261-.789-3.333-3.027-.031-.965-.945-.885-1.873-.732-.384 1.494-.408 2.873.209 4.545.442 1.196-.986 2.823-.496 4.312.436 1.325 1.222 2.437 1.18 4.017-.036 1.353.978 2.729-.1 4.095 2.042 4.897 2.417 10.035 2.256 15.261-.021.693-.357 1.524.311 2.089 1.404 1.186.733 2.767.73 4.145-.004 1.509 1.329 2.396 1.248 4.006-.214 4.279 1.271 8.351 2.289 12.434.33 1.322 1.109 2.555.996 4.034-.249 3.261.052 6.45 1.853 9.267.474.741.406 1.41.354 2.083-.474 6.132 2.054 11.702 3.223 17.462l-.869 1.116 2.142 2.142c0 2.189-.61 4.666.171 6.574.783 1.912.898 4.116 2.184 5.78.581.752 1.127 1.358 1.01 2.391-.553 4.913 2.751 9.227 2.224 14.143 2.268 1.334.522 3.992 2.062 5.911 1.265 1.575-.334 4.361 1.104 6.766.98 1.638.187 4.336.187 6.419.738 1.179 2.286 1.585 2.259 3.113l-1.046 1.638 2.19.777-1.204 1.326c.85.494 1.235 1.2 1.192 2.256-.034.86-.411 1.852.131 2.887l2.16 1.414v6.88l2.262 2.262c.005 1.426.005 3.05.005 5.981zm93.367-145.305c.71-.234 1.894.572 2.668-.654l-2.787-1.01 5.026-4.085c-.073-2.597.544-4.159 2.281-5.433 1.698-1.245 1.41-3.683 2.452-5.218l4.474-2.055-2.335-.851 1.471-2.971 1.25 1.05c1.003-3.269 1.292-6.775 4.599-8.956.638-.149 1.625.445 2.37-.311.962-1.216-.892-1.717-.634-2.73 4.144-2.418 6.681-7.257 4.766-9.172h-2.565c.147 2.327-2.596 2.572-3.301 3.901-.988 1.864-2.702 2.892-3.748 4.739.668 1.882-1.196 3.061-1.585 4.751-.746-.034-1.541-.184-1.689.967.296 1.389 2.12 2.582.819 4.352-1.647-.784-3.524-.283-4.054 1.014-1.198 2.931-4.099 4.15-5.703 6.668.152 4.238-3.522 6.3-5.41 8.632-.34 1.368.16 2.172-.532 2.747-2.912 1.563-3.947 3.168-5.909 9.142-.538.017-1.122-.11-1.677.804v4.476l-2.277.597c1.922 2.916-1.782 3.588-2.371 5.921-.452 1.788-3.907 1.96-3.882 4.738.67.437.985 1.051.63 2.567l-2.966 2.474c-.397 1.316.193 2.341-.784 3.013-1.483-.167-1.93.965-2.495 1.435.097.973 1.226 1.004.42 1.791-.563.238-1.43-.06-1.838.825v3.203c-2.927 2.712-3.246 6.527-5.228 11.052l-2.63 2.117v3.698c-1.127.611-2.872.776-3.068 2.006-.807 5.056-4.941 8.84-4.821 13.927l-2.093.433v3.79c-2.668.625-2.657 3.292-4.474 4.322.585.654.821.917 1.052 1.183-2.1 1.864-2.006 4.747-3.223 7.051-1.192 2.257-1.908 4.782-2.444 7.378-.511 2.475-3.605 3.934-3.407 6.939l-3.18 3.18c0 1.092.433 2.481-.072 3.274-2.84 4.47-3.876 9.583-5.537 14.475-.081.239-.436.385-.661.573l-.809-.809c-1.853 3.289-1.853 3.289-1.98 7.475-2.087.363-1.722 2.836-3.308 4.119.316 1.888-.503 4.017.492 5.214-1.316 1.634-2.385 2.962-2.749 4.788 1.987 1.291 3.259.421 4.601-1.186v-4.549c1.616-.938 1.928-2.665 3.05-3.747 1.826-1.762 2.93-3.189 2.296-3.937-1.067-1.258.709-2.67-.616-3.622.653-1.249 2.232-1.05 3.057-2.008-.418-2.942 1.627-5.402 1.206-8.131l2.119-.439v-4.869l2.187-.898c.103-3.198.618-6.258 3.025-8.76.786-.817 1.222-2.109 1.488-3.26.827-3.576 2.287-6.86 4.051-10.058.91-1.65 1.852-3.346 1.703-5.214.928-.313 1.786-.035 2.156-1.106v-1.076c.302-2.005 1.96-.732 2.025-2.127-.539-.491-1.132-.961-.744-2.754.233-.177 1.809-.78 1.878-1.523.388-4.191 3.595-7.115 4.604-10.97.32-1.224 1.692-.4 2.269-1.457-.714-2.425 1.275-4.491 1.376-6.917.986-.66 2.335.384 3.074-.84-.118-2.924.662-5.629 2.433-7.914 1.6-2.066 2.156-4.372 2.183-6.712 1.73-1.73 3.691-3.086 4.783-4.951 1.112-1.898.995-4.587 3.834-4.796.512-1.363-.253-2.706.56-3.912.378-1.534 2.969-.537 3.016-2.56l-.988-1.682c.367-.645.989-.324 1.516-.408.99-1.641 1.767-3.371 1.947-5.339 1.375-.102 2.267-.939 3.041-1.949-.425-.554-1.239-.874-.983-2.327 1.182-.716 3.296-1.076 3.588-3.449.106-.862 1.336-1.596 2.592-1.632.512-.015.528-.485.068-.751-.57-.365-1.469.036-1.832-.795 1.282-1.024 1.114-3.094 2.893-3.921zm94.075-113.925c.088-2.015 1.307-2.947 2.414-3.818 1.218-.958 1.278-2.122 1.22-3.446-.006-.133.461-.286.696-.422.871.445-.233 2.103 1.49 2.044 2.578-.249 2.545-3.497 4.606-4.438 2.395-1.093 3.337-3.07 3.51-5.549h2.53c1.688-2.235 4.568-3.543 5.417-6.789h3.405c1.505-.901 1.57-2.312 2.31-3.289.858-.256 1.844.339 2.629-.389-.258-2.506 2.781-4.709.915-7.118-2.462.393-3.767 2.203-5.323 3.693-.931.892-1.77 1.928-2.829 2.631-4.223 2.806-8.086 6.02-11.697 9.578-.843.83-.659 2.505-1.555 2.649-3.37.541-3.595 3.446-4.404 5.529-1.365.619-1.627-.912-2.709-.679l-.267 2.845c-1.897.043-3.543 1.051-5.258 1.722-.555 1.301-1.095 2.567-1.631 3.835-1.501.857-3.358.984-4.618 2.36-1.131 1.235-2.908 2.187-3.412 3.614-.697 1.971-3.169 1.966-3.501 3.468-.487 2.203-2.984 1.891-3.553 3.482-.586 1.639-1.168 2.993-3.15 3.073-.02 1.807-1.892 2.644-2.85 4.23h5.347c3.634-3.801 4.723-10.137 11.439-10.033-.358-1.961 1.588-1.882 2.308-2.816l-2.192-2.077 1.654-1.654 2.312 2.16 1.601-1.601-1.063-1.197c1.569.138 2.214-1.832 4.209-1.598zM107.522 259.524c4.334.947 1.788 4.99 4.014 6.76-1.332 1.097-1.578 2.354-.632 3.736l1.575.323c.103 1.026-1.334 1.309-.721 2.725.912.146 1.131 2.668 3.571.683-2.289-1.857-1.41-4.474-1.483-6.937-.076-2.548-.017-5.101-.017-7.402.914-.634 1.819-.227 2.224-1.034-1.258-.577-2.646-.999-3.133-1.971-.747-3.014.216-5.605-1.109-8.389-.998-2.097 1.87-4.916.699-7.718-1.365-.748-1.874-3.309-4.191-2.301-.385 1.775 1.978 2.991.948 4.152-1.485 1.673.246 2.785.128 4.158-.125 1.451-.529 3.393.205 4.293 1.44 1.767-1.144 2.673-.329 4.268.652 1.276-.027 2.787-1.749 4.654zm9.632 42.373c.15 3.119-.462 6.235 1.17 9.063.251.435.522.524.715.348l1.254-2.648-1.994-3.671c0-2.036.026-4.072-.008-6.107-.027-1.638.485-3.773-.344-4.792-1.125-1.383.048-3.473-1.804-4.31 1.727-1.201-.309-2.278-.137-3.491.231-1.633.078-3.324.039-4.989-.007-.318-.249-.63-.384-.944l-1.521-.392c-.904-.829.33-2.217-1.182-3.326.204 1.672-1.234 2.398-1.436 4.21l2.046 1.357c.717 3.884-.422 7.202.881 10.372 1.247 3.035-.6 6.976 2.705 9.32zm44.77 72.513c2.051 4.989.465 9.652 1.409 14.68 3.357-4.992 1.064-10.24 2.239-14.944 1.019.321 1.535 2.079 2.612.935.556-.722.468-1.227.191-1.838-1.436-.903-3.67.671-5.242-1.542 1.024 1.886-1.187 2.127-1.209 2.709zm129.034-166.886c1.891-1.471 3.545-3.327 3.859-5.585.358-2.58 1.441-3.466 3.855-3.374.522.02.837-.6.588-1.973-.382-.487-2.134-.077-2.6-1.226l-5.112 4.943v2.125c-.466 1.06-1.913.178-2.263 1.687.482.983 1.086 2.21 1.673 3.403zM163.364 440.049a9499.9 9499.9 0 0 1 3.27-2.96c-1.07-2.534.467-4.604.911-6.676-1.207-.671-2.098-.432-3.432-.27.688 3.297-2.199 6.274-.749 9.906zm142.08-255.865c-1.509 1.408-2.467 3.007-2.746 4.821l1.721 1.782c1.521-1.087 1.79-3.392 3.754-3.845v-2.758h-2.729zM165.317 343.366c-1.009-.959-2.214-.816-2.813-.49-1.343.733-1.576-1.623-2.695-.822v6.068l.86-.691.488 2.155c2.285-2.212-.96-3.452-.275-5.236 1.216-1.088 2.884.16 4.435-.984zm-8.037-25.132c.637-2.655-1.223-4.439-1.531-6.592-.586 4.428-.586 4.428 1.531 6.592zm4.805 44.494l.93.004c0-1.436.099-2.882-.028-4.307-.127-1.427.526-3.016-.902-5.076v9.379zm1.875 8.929v-8.306l-2.113 3.979 2.113 4.327zm-68.967-84.312v2.822l3.015-1.465v-2.821l-3.015 1.464zm216.598-106.221c-.891-.739-1.842-.396-2.685-.34-.409.027-.746.745-1.169 1.084-.384.307-.506.525-.124.926 1.228.239 2.587.346 3.978-.087v-1.583zm98.026-84.105l-3.595 1.611c2.278.64 3.623.686 5.015.222-.398-1.073-1.026-1.759-1.42-1.833zM158.63 325.62c-.486-.99.657-2.258-1.382-3.105.464 1.717-.263 3.077.518 4.443 1.049.142 2.112.62 2.946-.293-.298-.965-1.243-.418-2.082-1.045zm3.872 4.675c.43-1.396.945-2.816-.184-4.594-.584 1.889-.609 3.251.184 4.594zm-1.566 3.551c-.602-.929-.995-1.42-1.257-1.974-.22-.465.212-1.48-.975-1.013-.093 1.044-.607 2.111.388 2.987h1.844zm-6.865-36.337c-.754-.794-1.499-.816-2.24.036.082.512-.235 1.12.439 1.503 1.389.488 1.938-.098 1.801-1.539zm-23.385 73.911l2.414-1.119c-1.119-.851-1.736-.889-2.414-.245v1.364zm4.903 16.41c1.27-2.976-.063-2.63-1.487-2.38l1.487 2.38zm300.106-302.8l-2.414 1.119c1.119.851 1.735.889 2.414.244V85.03zm-50.464 30.077c-.538.282-1.488-1.105-1.833.421.675.539 1.294.577 1.833-.421zm-244.329 279.86c.544-.229 1.447 1.119 1.848-.375-.644-.596-1.262-.558-1.848.375zm240.664-274.596c-.521.367-.521.739 0 1.106.521-.367.521-.74 0-1.106zM163.574 336.076c.522-.363.522-.736 0-1.098-.521.362-.521.735 0 1.098zm46.952.019c-.522.363-.522.736 0 1.098.522-.362.522-.735 0-1.098zm-48.069 2.216c.522-.363.522-.735 0-1.098-.522.363-.522.735 0 1.098zm4.471 27.943c.522-.363.522-.736 0-1.098-.521.363-.521.735 0 1.098z" data-color="1"></path>
        <path fill="#C3FF5B" d="M149.903 273.276c1.77 1.495 2.467 3.243 3.059 5.047-.644 1.475-1.901.466-3.166.815-.278-1.95-.368-3.8.107-5.862z" data-color="1"></path>
        <path fill="#C3FF5B" d="M140.005 247.823l1.682 2.858c-.488.567-1.115.621-1.811.241-.497-1-.561-1.986.129-3.099z" data-color="1"></path>
        <path fill="#C3FF5B" d="M144.57 258.951c.812.756.812 1.501 0 2.258-.812-.756-.812-1.501 0-2.258z" data-color="1"></path>
        <path fill="#C3FF5B" d="M91.475 270.699c.367-.521.739-.521 1.106 0-.366.52-.739.52-1.106 0z" data-color="1"></path>
    </g>
</svg>